<?xml version='1.0' encoding='ascii'?>
<svg xmlns="http://www.w3.org/2000/svg" height="1000" version="1.1" width="1000">
    <g id="View Layer_LineSet" inkscape:groupmode="lineset" inkscape:label="View Layer_LineSet" xmlns:inkscape="http://www.inkscape.org/namespaces/inkscape">
        <g id="strokes" inkscape:groupmode="layer" inkscape:label="strokes" xmlns:inkscape="http://www.inkscape.org/namespaces/inkscape">
            <path d=" M 234.651, 205.847 227.477, 212.814 220.303, 219.780 213.019, 226.855 206.870, 234.741 200.721, 242.627 194.572, 250.514 189.637, 256.844 184.864, 265.631 180.092, 274.419 175.319, 283.206 172.754, 287.928 169.562, 297.405 166.370, 306.882 163.179, 316.359 162.059, 319.682 160.570, 329.571 159.081, 339.459 157.592, 349.348 157.241, 351.680 157.476, 361.677 157.710, 371.674 157.945, 381.671 157.988, 383.495 159.877, 393.315 161.766, 403.135 163.654, 412.955 163.990, 414.701 167.401, 424.101 170.811, 433.502 174.221, 442.902 174.936, 444.872 179.705, 453.661 184.474, 462.451 189.244, 471.240 190.514, 473.582 196.473, 481.613 202.431, 489.644 208.390, 497.675 210.415, 500.405 217.398, 507.563 224.381, 514.721 231.364, 521.879 234.326, 524.915 242.179, 531.106 250.031, 537.298 257.884, 543.489 261.937, 546.685 270.511, 551.831 279.085, 556.977 287.660, 562.123 292.936, 565.289 301.900, 569.723 310.863, 574.156 311.721, 574.580 320.862, 578.635 328.993, 582.241 338.317, 585.854 344.981, 588.436 354.484, 591.551 359.918, 593.333 369.581, 595.908 374.035, 597.095 383.828, 599.119 387.561, 599.890 397.449, 601.385 400.729, 601.881 410.676, 602.914 413.770, 603.235 423.747, 603.905 426.914, 604.118 436.904, 604.545 440.392, 604.694 450.387, 605.003 454.435, 605.129 464.430, 605.439 469.275, 605.589 466.353, 615.152 463.430, 624.716 463.088, 625.837 461.111, 635.640 459.184, 645.203 457.926, 655.123 456.802, 663.980 455.929, 673.942 455.056, 683.904 454.183, 693.866 453.562, 700.948 452.304, 710.868 451.181, 719.725 449.205, 729.528 447.277, 739.091 444.355, 748.655 441.432, 758.218 441.090, 759.339 437.132, 768.523 433.175, 777.706 431.857, 780.763 426.908, 789.453 421.960, 798.143 418.819, 803.658 413.008, 811.796 407.197, 819.935 401.213, 828.317 394.700, 835.904 388.186, 843.492 381.673, 851.080 378.279, 855.034 385.905, 848.565 393.531, 842.096 401.157, 835.628 407.071, 830.611 414.125, 823.523 421.179, 816.435 428.233, 809.347 430.007, 807.563 436.345, 799.828 442.682, 792.092 447.924, 785.694 453.418, 777.338 458.912, 768.982 461.658, 764.805 466.249, 755.921 470.840, 747.037 472.046, 744.703 475.790, 735.430 479.533, 726.157 479.924, 725.189 483.011, 715.677 486.129, 706.068 488.858, 696.447 491.588, 686.827 494.317, 677.207 496.867, 668.218 499.953, 658.706 503.072, 649.097 506.815, 639.824 510.559, 630.551 510.950, 629.583 515.541, 620.699 520.131, 611.815 521.338, 609.480 531.317, 608.835 541.296, 608.190 551.275, 607.544 561.254, 606.899 566.256, 606.575 576.134, 605.020 586.013, 603.465 595.891, 601.909 605.769, 600.354 611.261, 599.489 620.969, 597.091 630.677, 594.692 640.385, 592.294 650.093, 589.895 655.649, 588.523 665.123, 585.323 674.597, 582.122 684.071, 578.922 693.545, 575.722 698.716, 573.975 707.888, 569.991 717.060, 566.007 726.232, 562.022 735.405, 558.038 739.761, 556.146 748.549, 551.373 757.336, 546.600 766.124, 541.828 774.911, 537.055 778.079, 535.334 786.374, 529.749 794.669, 524.163 802.963, 518.578 811.258, 512.992 812.968, 511.841 820.620, 505.403 828.272, 498.965 835.924, 492.527 843.723, 485.965 850.522, 478.631 857.320, 471.298 864.119, 463.964 869.643, 458.006 875.295, 449.757 880.948, 441.508 886.600, 433.258 890.023, 428.264 894.147, 419.154 898.271, 410.044 902.396, 400.934 904.160, 397.038 906.326, 387.276 908.492, 377.513 910.659, 367.751 911.352, 364.629 911.518, 354.630 911.684, 344.632 911.846, 334.932 910.247, 325.061 908.648, 315.189 907.117, 305.733 903.852, 296.281 900.587, 286.830 897.323, 277.381 892.562, 268.587 887.802, 259.793 883.041, 250.999 882.622, 250.225 876.575, 242.261 870.527, 234.297 864.479, 226.333 863.173, 224.613 856.055, 217.589 848.937, 210.565 841.819, 203.542 839.135, 200.893 831.152, 194.871 823.169, 188.848 815.186, 182.826 810.665, 179.416 802.003, 174.419 793.341, 169.422 784.679, 164.426 777.923, 160.528 768.745, 156.557 759.567, 152.586 750.390, 148.615 741.066, 144.580 731.515, 141.617 721.964, 138.654 712.413, 135.691 702.862, 132.729 700.253, 131.919 690.451, 129.937 680.650, 127.954 670.848, 125.971 661.047, 123.988 655.642, 122.895 645.696, 121.856 635.751, 120.818 625.805, 119.779 615.859, 118.740 607.393, 117.856 597.400, 117.468 587.408, 117.080 577.415, 116.691 567.423, 116.303 566.315, 116.260 556.315, 116.290 546.315, 116.319 536.315, 116.349 526.181, 116.379 516.193, 116.866 506.205, 117.353 496.217, 117.840 487.157, 118.282 477.206, 119.271 467.255, 120.260 457.304, 121.250 449.406, 122.035 439.526, 123.579 429.646, 125.122 419.766, 126.666 413.094, 127.708 403.329, 129.863 393.564, 132.018 383.799, 134.173 378.386, 135.367 368.794, 138.196 359.202, 141.024 349.611, 143.853 345.445, 145.082 336.102, 148.648 326.760, 152.214 317.417, 155.781 314.436, 156.919 305.439, 161.284 296.442, 165.650 287.445, 170.015 285.525, 170.947 276.992, 176.162 268.459, 181.376 259.926, 186.591 258.875, 187.234 250.945, 193.327 243.016, 199.420 235.086, 205.513 234.651, 205.847 " fill="none" stroke="rgb(0, 0, 0)" stroke-linecap="butt" stroke-linejoin="miter" stroke-opacity="1.0" stroke-width="3.0" />
            <path d=" M 456.802, 663.980 455.929, 673.942 455.056, 683.904 454.183, 693.866 453.562, 700.948 " fill="none" stroke="rgb(0, 0, 0)" stroke-linecap="butt" stroke-linejoin="miter" stroke-opacity="1.0" stroke-width="3.0" />
        </g>
    </g>
</svg>
