<?xml version='1.0' encoding='ascii'?>
<svg xmlns="http://www.w3.org/2000/svg" height="1000" version="1.1" width="1000">
    <g id="View Layer_LineSet" inkscape:groupmode="lineset" inkscape:label="View Layer_LineSet" xmlns:inkscape="http://www.inkscape.org/namespaces/inkscape">
        <g id="strokes" inkscape:groupmode="layer" inkscape:label="strokes" xmlns:inkscape="http://www.inkscape.org/namespaces/inkscape">
            <path d=" M 432.105, 342.003 422.587, 345.071 413.069, 348.139 408.024, 349.766 398.640, 353.222 389.256, 356.679 387.178, 357.444 377.974, 361.353 368.620, 365.325 359.678, 369.801 352.249, 373.519 343.687, 378.685 337.966, 382.137 329.944, 388.108 325.670, 391.289 318.389, 398.144 315.263, 401.087 308.938, 408.833 306.645, 411.641 301.457, 420.190 299.715, 423.061 295.759, 432.246 294.375, 435.459 291.629, 445.075 290.524, 448.945 288.872, 458.808 288.064, 463.630 287.334, 473.603 286.893, 479.624 277.138, 481.821 267.382, 484.018 265.393, 484.466 255.784, 487.237 246.176, 490.007 243.917, 490.659 234.422, 493.796 224.927, 496.934 222.457, 497.750 213.024, 501.067 203.590, 504.383 201.006, 505.292 191.572, 508.608 182.138, 511.925 179.555, 512.833 170.060, 515.971 160.565, 519.109 158.095, 519.925 148.486, 522.695 138.878, 525.466 136.619, 526.117 126.864, 528.314 117.108, 530.511 115.119, 530.959 105.217, 532.358 95.315, 533.757 93.586, 534.002 83.592, 534.369 73.599, 534.737 72.011, 534.795 62.050, 533.917 52.088, 533.039 50.388, 532.889 40.649, 530.618 30.911, 528.347 28.708, 527.833 38.016, 531.488 47.324, 535.142 51.306, 536.706 60.999, 539.167 70.691, 541.627 73.847, 542.429 83.758, 543.761 93.669, 545.094 96.339, 545.453 106.333, 545.797 116.327, 546.142 118.790, 546.227 128.780, 545.770 138.769, 545.313 141.209, 545.201 151.153, 544.147 161.097, 543.092 163.602, 542.827 173.497, 541.378 183.392, 539.930 185.980, 539.552 195.844, 537.909 205.708, 536.267 215.572, 534.624 225.437, 532.982 230.718, 532.102 240.613, 530.654 250.508, 529.206 253.096, 528.828 263.040, 527.773 272.984, 526.718 275.490, 526.453 285.479, 525.996 295.469, 525.539 297.908, 525.427 306.376, 530.747 314.844, 536.066 317.068, 537.463 325.889, 542.175 334.709, 546.887 336.903, 548.059 346.021, 552.165 355.139, 556.271 357.472, 557.322 366.832, 560.844 376.191, 564.366 378.838, 565.362 388.386, 568.337 397.933, 571.312 401.061, 572.286 410.749, 574.764 420.438, 577.241 424.201, 578.204 433.992, 580.241 443.782, 582.278 448.320, 583.222 458.182, 584.880 468.043, 586.538 473.478, 587.451 483.388, 588.789 493.298, 590.128 499.736, 590.997 509.677, 592.075 519.619, 593.153 527.154, 593.971 537.116, 594.843 547.078, 595.715 555.794, 596.478 565.768, 597.196 575.743, 597.913 585.716, 598.630 595.704, 599.122 605.692, 599.614 615.680, 600.106 625.668, 600.598 627.615, 600.693 637.614, 600.828 647.613, 600.962 657.612, 601.096 667.967, 601.234 677.963, 600.957 687.959, 600.680 697.955, 600.402 706.476, 600.166 716.448, 599.408 726.419, 598.651 736.390, 597.893 742.847, 597.402 752.759, 596.074 762.670, 594.747 772.582, 593.419 776.784, 592.856 786.579, 590.843 796.375, 588.829 806.170, 586.816 807.990, 586.442 817.577, 583.595 827.163, 580.748 836.171, 578.073 845.395, 574.210 854.618, 570.347 861.029, 567.662 869.641, 562.579 878.253, 557.495 882.270, 555.124 889.884, 548.641 897.498, 542.159 899.596, 540.372 905.693, 532.446 911.790, 524.520 912.713, 523.320 916.764, 514.177 920.814, 505.034 921.325, 503.881 923.936, 494.228 925.735, 487.575 927.560, 477.743 928.884, 470.605 929.568, 460.628 930.071, 453.292 929.222, 443.328 928.595, 435.956 925.862, 426.337 923.754, 418.920 918.986, 410.130 914.849, 402.504 908.228, 395.009 901.607, 387.515 901.178, 387.028 893.149, 381.066 885.121, 375.104 882.039, 372.815 873.092, 368.349 864.144, 363.883 856.733, 360.184 847.247, 357.021 837.760, 353.859 828.273, 350.696 824.559, 349.458 814.780, 347.366 805.001, 345.274 795.222, 343.182 785.444, 341.090 784.815, 340.956 774.891, 339.725 764.967, 338.494 755.043, 337.263 745.119, 336.032 736.800, 335.000 726.837, 334.139 716.874, 333.278 706.911, 332.416 697.113, 331.570 687.146, 330.756 677.179, 329.943 667.213, 329.130 661.292, 328.646 651.317, 327.935 641.342, 327.224 631.368, 326.512 628.847, 326.333 618.861, 325.791 608.876, 325.250 599.289, 324.730 589.293, 324.440 579.297, 324.149 572.128, 323.941 562.128, 323.991 552.128, 324.041 546.875, 324.067 536.887, 324.547 526.898, 325.026 523.041, 325.211 513.090, 326.195 503.138, 327.178 500.137, 327.475 490.255, 329.008 480.373, 330.541 477.672, 330.960 467.892, 333.049 458.113, 335.137 455.158, 335.769 445.504, 338.379 435.851, 340.990 432.105, 342.003 " fill="none" stroke="rgb(0, 0, 0)" stroke-linecap="butt" stroke-linejoin="miter" stroke-opacity="1.0" stroke-width="3.0" />
        </g>
    </g>
</svg>
