<?xml version='1.0' encoding='ascii'?>
<svg xmlns="http://www.w3.org/2000/svg" height="1000" version="1.1" width="1000">
    <g id="View Layer_LineSet" inkscape:groupmode="lineset" inkscape:label="View Layer_LineSet" xmlns:inkscape="http://www.inkscape.org/namespaces/inkscape">
        <g id="strokes" inkscape:groupmode="layer" inkscape:label="strokes" xmlns:inkscape="http://www.inkscape.org/namespaces/inkscape">
            <path d=" M 175.712, 198.288 168.559, 205.276 161.406, 212.264 154.253, 219.252 151.316, 222.121 145.192, 230.027 139.069, 237.933 132.945, 245.839 126.822, 253.744 124.912, 256.210 120.161, 265.009 115.410, 273.809 110.659, 282.608 105.856, 291.502 102.686, 300.986 99.516, 310.470 96.345, 319.954 93.816, 327.522 92.354, 337.415 90.892, 347.307 89.430, 357.200 88.456, 363.795 88.730, 373.792 89.003, 383.788 89.277, 393.784 89.443, 399.847 91.386, 409.657 93.328, 419.466 95.271, 429.276 96.444, 435.203 99.922, 444.579 103.400, 453.954 106.878, 463.330 109.125, 469.388 113.971, 478.135 118.817, 486.882 123.664, 495.629 127.152, 501.927 133.190, 509.898 139.228, 517.870 145.266, 525.841 150.192, 532.345 157.249, 539.430 164.307, 546.514 171.365, 553.598 177.910, 560.168 185.825, 566.279 193.741, 572.390 201.657, 578.501 209.572, 584.612 209.973, 584.922 218.593, 589.990 227.214, 595.058 235.835, 600.126 244.455, 605.194 246.047, 606.130 255.071, 610.440 264.095, 614.749 271.877, 618.466 281.110, 622.306 290.343, 626.146 296.209, 628.585 305.637, 631.920 315.065, 635.254 319.191, 636.714 328.789, 639.519 338.388, 642.324 340.966, 643.078 350.706, 645.346 360.445, 647.614 361.682, 647.902 371.528, 649.647 381.482, 651.412 391.402, 652.674 400.513, 653.833 410.478, 654.677 418.921, 655.392 428.908, 655.905 436.851, 656.313 446.846, 656.603 454.447, 656.823 464.446, 657.008 471.857, 657.146 481.855, 657.355 489.225, 657.508 490.729, 667.395 492.233, 677.281 492.818, 681.126 495.983, 690.612 499.149, 700.098 500.071, 702.861 504.349, 711.899 508.628, 720.938 509.764, 723.339 514.582, 732.102 519.400, 740.865 520.678, 743.191 525.496, 751.954 530.314, 760.716 531.592, 763.042 535.871, 772.080 540.149, 781.119 541.286, 783.521 544.452, 793.007 547.617, 802.492 548.539, 805.255 550.043, 815.142 551.547, 825.028 552.132, 828.873 551.639, 838.861 551.147, 848.849 550.843, 855.002 548.395, 864.697 545.947, 874.393 543.453, 884.269 539.385, 893.404 535.317, 902.539 531.248, 911.674 528.742, 917.303 523.464, 925.797 518.187, 934.291 512.910, 942.785 507.633, 951.280 505.488, 954.731 512.298, 947.408 519.108, 940.085 525.918, 932.762 532.727, 925.439 537.142, 920.692 542.950, 912.551 548.757, 904.410 554.565, 896.270 559.048, 889.986 563.423, 880.994 567.799, 872.002 572.174, 863.010 572.598, 862.139 575.103, 852.457 577.607, 842.776 579.186, 836.672 579.617, 826.682 580.049, 816.691 580.203, 813.112 578.790, 803.212 577.376, 793.312 577.043, 790.980 574.341, 781.352 571.638, 771.724 571.098, 769.800 567.757, 760.375 564.417, 750.949 563.760, 749.097 560.419, 739.672 557.079, 730.246 556.422, 728.394 553.720, 718.766 551.017, 709.138 550.477, 707.215 549.063, 697.315 547.650, 687.416 547.317, 685.083 547.748, 675.092 548.180, 665.101 548.334, 661.522 558.313, 660.867 568.291, 660.213 578.270, 659.558 588.248, 658.904 598.368, 658.240 608.221, 656.528 618.073, 654.817 627.925, 653.105 637.778, 651.393 647.140, 649.766 656.766, 647.057 666.392, 644.347 676.018, 641.638 685.644, 638.928 694.091, 636.550 703.399, 632.893 712.706, 629.237 722.014, 625.580 731.321, 621.923 738.662, 619.039 747.559, 614.475 756.457, 609.910 765.354, 605.346 774.252, 600.781 780.292, 597.683 788.680, 592.238 797.067, 586.793 805.455, 581.348 813.843, 575.903 818.423, 572.929 826.182, 566.621 833.942, 560.312 841.701, 554.004 849.460, 547.695 852.496, 545.227 859.478, 538.068 866.459, 530.909 873.441, 523.750 880.423, 516.591 881.950, 515.025 887.964, 507.036 893.977, 499.046 899.991, 491.056 906.227, 482.773 911.030, 474.002 915.833, 465.231 920.636, 456.460 924.766, 448.917 928.067, 439.478 931.369, 430.038 934.670, 420.599 937.010, 413.908 938.501, 404.020 939.993, 394.132 941.485, 384.244 942.398, 378.193 942.088, 368.198 941.779, 358.203 941.469, 348.208 941.355, 344.508 939.456, 334.690 937.557, 324.872 935.658, 315.054 934.951, 311.402 931.539, 302.003 928.127, 292.603 924.715, 283.203 923.287, 279.269 918.489, 270.495 913.691, 261.722 908.893, 252.948 906.462, 248.501 900.439, 240.518 894.416, 232.535 888.394, 224.552 884.576, 219.491 877.506, 212.419 870.437, 205.346 863.367, 198.273 857.729, 192.632 849.793, 186.547 841.858, 180.462 833.923, 174.377 826.021, 168.317 817.394, 163.260 808.767, 158.203 800.140, 153.145 791.513, 148.088 789.552, 146.938 780.395, 142.920 771.238, 138.901 762.081, 134.883 752.924, 130.864 748.422, 128.889 738.881, 125.897 729.339, 122.905 719.797, 119.913 710.255, 116.921 702.732, 114.562 692.933, 112.567 683.134, 110.571 673.335, 108.576 663.536, 106.581 653.737, 104.585 652.581, 104.350 642.635, 103.309 632.689, 102.268 622.744, 101.228 612.798, 100.187 602.852, 99.146 598.069, 98.645 588.076, 98.257 578.084, 97.868 568.091, 97.479 558.099, 97.090 551.525, 96.834 541.525, 96.862 531.525, 96.890 521.525, 96.918 511.525, 96.945 506.034, 96.961 496.046, 97.445 486.058, 97.928 476.070, 98.412 466.081, 98.896 461.790, 99.104 451.839, 100.089 441.887, 101.074 431.936, 102.060 421.985, 103.045 418.983, 103.342 409.102, 104.881 399.221, 106.420 389.340, 107.958 379.460, 109.497 377.806, 109.754 368.040, 111.905 358.274, 114.055 348.508, 116.205 338.450, 118.419 328.858, 121.244 319.265, 124.069 309.672, 126.894 301.108, 129.415 291.765, 132.980 282.422, 136.545 273.079, 140.110 265.971, 142.822 256.976, 147.189 247.980, 151.556 238.984, 155.924 233.232, 158.716 224.704, 163.939 216.176, 169.161 207.647, 174.383 203.081, 177.179 195.163, 183.286 187.244, 189.393 179.326, 195.500 175.712, 198.288 " fill="none" stroke="rgb(0, 0, 0)" stroke-linecap="butt" stroke-linejoin="miter" stroke-opacity="1.0" stroke-width="3.0" />
        </g>
    </g>
</svg>
