<?xml version='1.0' encoding='ascii'?>
<svg xmlns="http://www.w3.org/2000/svg" height="1000" version="1.1" width="1000">
    <g id="View Layer_LineSet" inkscape:groupmode="lineset" inkscape:label="View Layer_LineSet" xmlns:inkscape="http://www.inkscape.org/namespaces/inkscape">
        <g id="strokes" inkscape:groupmode="layer" inkscape:label="strokes" xmlns:inkscape="http://www.inkscape.org/namespaces/inkscape">
            <path d=" M 180.065, 190.495 172.467, 196.997 164.869, 203.498 157.272, 210.000 150.597, 215.712 143.899, 223.138 137.200, 230.563 130.502, 237.988 123.804, 245.414 120.261, 249.342 114.726, 257.671 109.192, 266.000 103.658, 274.329 98.124, 282.658 96.852, 284.572 92.683, 293.662 88.514, 302.751 84.344, 311.840 80.203, 320.869 77.568, 330.516 74.933, 340.163 72.299, 349.809 70.144, 357.701 69.161, 367.652 68.178, 377.604 67.195, 387.555 66.506, 394.533 67.225, 404.508 67.944, 414.482 68.663, 424.456 69.123, 430.835 71.520, 440.544 73.917, 450.252 76.315, 459.960 77.824, 466.073 81.809, 475.245 85.794, 484.416 89.780, 493.588 92.442, 499.714 97.870, 508.113 103.298, 516.511 108.726, 524.910 112.808, 531.225 119.495, 538.661 126.182, 546.096 132.869, 553.532 138.753, 560.075 146.493, 566.407 154.233, 572.739 161.972, 579.071 169.712, 585.404 170.110, 585.729 178.688, 590.868 187.267, 596.007 195.845, 601.147 204.423, 606.286 206.709, 607.655 215.654, 612.126 224.599, 616.597 232.002, 620.298 241.024, 624.610 250.046, 628.923 253.367, 630.510 262.502, 634.577 271.431, 638.552 280.720, 642.256 286.821, 644.688 296.299, 647.877 300.165, 649.178 309.842, 651.698 312.088, 652.283 321.933, 654.037 323.217, 654.266 333.165, 655.284 334.180, 655.387 344.170, 655.844 345.604, 655.909 355.603, 656.056 358.114, 656.093 368.113, 656.168 372.338, 656.200 382.336, 656.376 388.902, 656.492 381.698, 663.428 374.495, 670.364 367.961, 676.655 361.389, 684.192 354.818, 691.729 354.571, 692.012 348.881, 700.235 345.414, 705.246 340.284, 713.830 337.171, 719.037 332.476, 727.866 329.615, 733.246 325.215, 742.226 322.516, 747.734 318.264, 756.785 314.013, 765.836 309.761, 774.888 308.775, 776.988 304.375, 785.968 301.676, 791.476 296.980, 800.305 294.119, 805.685 288.989, 814.269 285.877, 819.476 280.187, 827.699 276.720, 832.710 270.371, 840.436 266.419, 845.247 259.357, 852.326 254.747, 856.947 246.969, 863.232 241.474, 867.673 233.037, 873.041 226.372, 877.283 217.381, 881.661 209.211, 885.640 199.797, 889.011 190.382, 892.382 189.764, 892.603 180.057, 895.003 170.349, 897.403 167.802, 898.033 157.916, 899.536 148.030, 901.040 143.096, 901.791 133.108, 902.265 123.119, 902.740 113.130, 903.215 107.298, 903.492 97.299, 903.358 87.299, 903.224 77.300, 903.090 67.301, 902.957 57.302, 902.823 52.057, 902.752 62.040, 903.334 72.024, 903.915 82.007, 904.497 91.990, 905.078 101.973, 905.660 111.956, 906.241 115.328, 906.437 125.328, 906.462 135.328, 906.486 145.328, 906.511 155.328, 906.535 156.793, 906.539 166.752, 905.638 176.711, 904.736 185.956, 903.899 195.811, 902.204 205.666, 900.508 212.323, 899.362 221.993, 896.812 231.662, 894.262 236.127, 893.085 245.518, 889.648 254.909, 886.211 257.601, 885.226 266.620, 880.905 275.638, 876.585 276.978, 875.943 285.544, 870.784 294.110, 865.624 294.490, 865.395 302.552, 859.479 310.371, 853.740 317.914, 847.175 324.854, 841.136 331.904, 834.044 338.172, 827.741 344.790, 820.245 350.557, 813.713 356.832, 805.927 362.244, 799.211 368.280, 791.238 373.464, 784.392 379.379, 776.329 385.295, 768.267 391.210, 760.204 395.439, 754.439 401.476, 746.466 406.660, 739.620 412.934, 731.834 418.346, 725.118 424.965, 717.622 430.732, 711.090 437.782, 703.999 444.050, 697.695 451.757, 691.324 459.464, 684.952 462.678, 682.296 470.840, 676.519 479.003, 670.742 487.165, 664.965 490.994, 662.255 500.993, 662.127 510.992, 661.999 520.991, 661.870 530.990, 661.742 540.990, 661.614 543.347, 661.584 553.298, 660.598 563.250, 659.612 573.201, 658.626 583.152, 657.640 593.103, 656.654 595.791, 656.387 605.628, 654.593 615.466, 652.800 625.304, 651.006 635.142, 649.212 644.980, 647.418 647.603, 646.940 657.267, 644.369 666.931, 641.797 676.595, 639.226 686.259, 636.655 695.922, 634.084 698.064, 633.514 707.491, 630.177 716.918, 626.840 726.345, 623.503 735.771, 620.166 745.198, 616.829 746.453, 616.385 755.569, 612.274 764.685, 608.163 773.801, 604.052 782.917, 599.942 792.048, 595.824 800.760, 590.914 809.471, 586.004 818.183, 581.094 826.894, 576.184 834.129, 572.106 842.310, 566.355 850.491, 560.605 858.673, 554.854 866.854, 549.104 871.975, 545.504 879.452, 538.863 886.929, 532.223 894.405, 525.582 901.882, 518.941 904.866, 516.291 911.397, 508.719 917.929, 501.147 924.460, 493.575 930.992, 486.002 932.079, 484.742 937.344, 476.240 942.609, 467.738 947.874, 459.236 952.896, 451.128 956.504, 441.802 960.112, 432.476 963.721, 423.150 966.593, 415.725 968.375, 405.885 970.156, 396.045 971.938, 386.205 973.053, 380.044 973.054, 370.044 973.055, 360.044 973.057, 350.044 973.057, 344.551 971.280, 334.710 969.502, 324.869 967.725, 315.028 966.760, 309.685 963.304, 300.301 959.849, 290.917 956.393, 281.533 954.315, 275.889 949.357, 267.206 944.398, 258.522 939.439, 249.838 935.880, 243.605 929.632, 235.797 923.383, 227.990 917.135, 220.182 911.607, 213.273 904.294, 206.453 896.981, 199.632 889.668, 192.812 882.355, 185.991 881.652, 185.336 873.489, 179.561 865.325, 173.785 857.161, 168.010 848.998, 162.235 846.171, 160.235 837.350, 155.523 828.530, 150.811 819.710, 146.099 810.889, 141.387 805.317, 138.411 796.010, 134.753 786.703, 131.096 777.396, 127.438 768.088, 123.780 759.246, 120.305 749.598, 117.674 739.950, 115.043 730.303, 112.412 720.655, 109.781 711.007, 107.150 708.112, 106.361 698.248, 104.716 688.384, 103.072 678.520, 101.427 668.656, 99.783 658.792, 98.139 652.070, 97.018 642.113, 96.093 632.156, 95.169 622.199, 94.244 612.242, 93.319 603.905, 92.545 593.914, 92.122 583.923, 91.699 573.932, 91.276 563.941, 90.853 555.818, 90.509 545.818, 90.604 535.819, 90.699 525.819, 90.794 515.820, 90.889 508.133, 90.962 498.154, 91.598 488.174, 92.235 478.194, 92.871 468.215, 93.508 461.176, 93.956 451.249, 95.165 441.322, 96.373 431.396, 97.582 421.469, 98.791 415.270, 99.545 405.436, 101.364 395.603, 103.182 385.770, 105.001 375.937, 106.820 370.739, 107.781 361.049, 110.255 351.360, 112.728 341.671, 115.202 331.982, 117.675 327.907, 118.716 318.426, 121.895 308.945, 125.075 299.464, 128.255 289.984, 131.435 287.100, 132.402 277.909, 136.343 268.719, 140.283 259.528, 144.224 250.337, 148.165 248.641, 148.892 239.844, 153.648 231.048, 158.404 222.251, 163.159 213.454, 167.915 212.855, 168.239 204.581, 173.855 196.307, 179.471 188.033, 185.087 180.065, 190.495 " fill="none" stroke="rgb(0, 0, 0)" stroke-linecap="butt" stroke-linejoin="miter" stroke-opacity="1.0" stroke-width="3.0" />
            <path d=" M 322.516, 747.734 318.264, 756.785 314.013, 765.836 309.761, 774.888 308.775, 776.988 " fill="none" stroke="rgb(0, 0, 0)" stroke-linecap="butt" stroke-linejoin="miter" stroke-opacity="1.0" stroke-width="3.0" />
            <path d=" M 373.464, 784.392 379.379, 776.329 385.295, 768.267 391.210, 760.204 395.439, 754.439 " fill="none" stroke="rgb(0, 0, 0)" stroke-linecap="butt" stroke-linejoin="miter" stroke-opacity="1.0" stroke-width="3.0" />
        </g>
    </g>
</svg>
