<?xml version='1.0' encoding='ascii'?>
<svg xmlns="http://www.w3.org/2000/svg" height="1000" version="1.1" width="1000">
    <g id="View Layer_LineSet" inkscape:groupmode="lineset" inkscape:label="View Layer_LineSet" xmlns:inkscape="http://www.inkscape.org/namespaces/inkscape">
        <g id="strokes" inkscape:groupmode="layer" inkscape:label="strokes" xmlns:inkscape="http://www.inkscape.org/namespaces/inkscape">
            <path d=" M 810.237, 179.673 818.251, 185.654 826.265, 191.635 834.280, 197.616 836.022, 198.917 843.196, 205.884 850.369, 212.851 857.543, 219.818 862.292, 224.430 868.271, 232.446 874.249, 240.462 880.228, 248.478 882.051, 250.921 886.516, 259.868 890.982, 268.816 895.447, 277.764 895.597, 278.063 898.273, 287.698 900.949, 297.333 903.227, 305.531 903.956, 315.504 904.686, 325.478 905.237, 333.001 904.026, 342.927 902.815, 352.853 901.925, 360.146 898.924, 369.685 895.923, 379.224 893.589, 386.643 889.032, 395.544 884.475, 404.446 880.524, 412.165 874.668, 420.271 868.813, 428.378 863.028, 436.388 856.113, 443.612 849.198, 450.836 842.284, 458.060 841.398, 458.987 833.630, 465.285 825.862, 471.583 818.095, 477.881 815.930, 479.635 807.483, 484.987 799.035, 490.338 790.587, 495.689 786.923, 498.010 778.146, 502.802 769.369, 507.594 765.160, 509.892 756.281, 514.492 747.402, 519.092 744.625, 520.530 735.630, 524.899 726.635, 529.267 725.186, 529.971 716.062, 534.064 706.938, 538.157 706.708, 538.261 697.445, 542.031 689.057, 545.445 679.652, 548.842 672.100, 551.570 662.553, 554.546 655.703, 556.681 646.024, 559.193 639.733, 560.826 629.938, 562.840 624.056, 564.049 614.168, 565.545 608.537, 566.397 598.585, 567.373 593.044, 567.916 583.055, 568.387 577.442, 568.652 574.383, 578.173 571.323, 587.693 568.264, 597.214 567.266, 600.320 563.298, 609.499 559.331, 618.678 555.363, 627.857 552.256, 635.044 547.813, 644.002 543.370, 652.961 538.926, 661.919 534.483, 670.878 534.023, 671.805 529.373, 680.658 524.723, 689.511 520.073, 698.364 515.422, 707.217 510.772, 716.070 506.122, 724.923 504.256, 728.475 499.656, 737.354 495.056, 746.233 494.535, 747.238 490.038, 756.170 485.542, 765.102 485.217, 765.746 480.885, 774.758 476.504, 783.872 472.408, 792.995 468.596, 801.488 464.831, 810.753 461.695, 818.468 458.383, 827.904 456.003, 834.684 453.312, 844.315 451.721, 850.008 449.886, 859.839 449.050, 864.314 448.400, 874.293 448.193, 877.474 449.162, 887.427 449.350, 889.360 452.412, 898.879 452.723, 899.845 458.151, 908.243 458.513, 908.802 466.063, 915.359 466.922, 916.104 475.896, 920.515 478.151, 921.623 487.541, 925.061 490.790, 926.251 480.978, 924.317 474.120, 922.965 464.493, 920.261 458.888, 918.687 449.967, 914.168 446.529, 912.426 438.857, 906.011 436.838, 904.322 430.904, 896.273 429.611, 894.518 425.604, 885.356 424.641, 883.155 422.416, 873.406 421.724, 870.375 420.966, 860.404 420.655, 856.320 421.032, 846.327 421.228, 841.131 422.460, 831.207 423.237, 824.950 425.106, 815.126 426.478, 807.918 428.817, 798.196 430.745, 790.179 433.423, 780.544 435.834, 771.872 438.747, 762.306 441.538, 753.140 444.599, 743.620 447.653, 734.125 450.786, 724.629 453.919, 715.132 457.052, 705.636 460.185, 696.139 463.318, 686.642 466.613, 676.655 469.449, 667.065 472.286, 657.476 475.122, 647.887 477.610, 639.475 479.768, 629.710 481.925, 619.946 484.083, 610.181 485.324, 604.562 486.205, 594.601 487.086, 584.640 487.967, 574.679 488.111, 573.050 478.114, 572.804 468.117, 572.558 458.121, 572.312 448.124, 572.066 442.998, 571.940 433.079, 570.670 423.160, 569.399 413.241, 568.129 403.322, 566.859 399.070, 566.314 389.325, 564.072 379.579, 561.829 369.834, 559.587 360.089, 557.345 356.770, 556.581 347.284, 553.414 337.799, 550.248 328.314, 547.081 318.828, 543.914 316.537, 543.150 307.395, 539.097 298.253, 535.045 289.111, 530.992 279.969, 526.940 278.813, 526.428 270.102, 521.517 261.391, 516.606 252.680, 511.695 244.039, 506.824 235.860, 501.070 227.681, 495.316 219.502, 489.563 212.655, 484.746 205.134, 478.156 197.613, 471.565 190.092, 464.975 185.103, 460.603 178.403, 453.179 171.704, 445.755 165.005, 438.330 161.822, 434.804 156.163, 426.559 150.504, 418.315 144.844, 410.070 143.255, 407.755 138.921, 398.743 134.587, 389.732 130.252, 380.720 129.842, 379.867 127.181, 370.228 124.520, 360.588 122.024, 351.547 121.135, 341.586 120.246, 331.626 119.576, 324.109 120.341, 314.138 121.106, 304.168 121.665, 296.886 124.083, 287.183 126.501, 277.480 128.314, 270.206 132.304, 261.036 136.294, 251.867 139.547, 244.394 144.958, 235.984 150.369, 227.575 155.387, 219.776 162.020, 212.293 168.653, 204.809 175.286, 197.326 175.857, 196.680 183.493, 190.223 191.128, 183.766 198.764, 177.308 200.982, 175.432 209.404, 170.042 217.827, 164.651 226.250, 159.261 230.784, 156.359 239.798, 152.029 248.812, 147.700 257.826, 143.370 265.286, 139.787 274.724, 136.480 284.161, 133.173 293.598, 129.866 303.036, 126.559 304.513, 126.042 314.235, 123.700 323.957, 121.359 333.679, 119.017 343.401, 116.676 348.487, 115.451 358.382, 114.008 368.277, 112.564 378.173, 111.121 388.068, 109.677 397.232, 108.341 407.199, 107.533 417.167, 106.726 427.134, 105.919 437.101, 105.111 439.377, 104.927 449.370, 104.558 459.363, 104.189 469.356, 103.820 479.349, 103.451 481.453, 103.373 491.453, 103.456 501.452, 103.539 511.452, 103.622 521.451, 103.705 523.177, 103.719 533.161, 104.274 543.146, 104.830 553.130, 105.385 563.115, 105.940 564.265, 106.004 574.209, 107.060 584.153, 108.116 594.097, 109.172 604.433, 110.269 614.305, 111.861 624.178, 113.454 634.050, 115.046 643.397, 116.554 653.158, 118.727 662.919, 120.900 672.680, 123.074 680.875, 124.898 690.473, 127.705 700.070, 130.513 709.668, 133.320 716.581, 135.342 725.948, 138.845 735.314, 142.347 744.681, 145.850 750.233, 147.926 759.278, 152.190 768.323, 156.455 777.368, 160.720 781.546, 162.690 790.151, 167.783 798.757, 172.877 807.362, 177.971 810.237, 179.673 " fill="none" stroke="rgb(0, 0, 0)" stroke-linecap="butt" stroke-linejoin="miter" stroke-opacity="1.0" stroke-width="3.0" />
            <path d=" M 504.256, 728.475 508.906, 719.622 513.557, 710.769 518.207, 701.916 522.857, 693.063 527.507, 684.210 532.157, 675.357 534.023, 671.805 " fill="none" stroke="rgb(0, 0, 0)" stroke-linecap="butt" stroke-linejoin="miter" stroke-opacity="1.0" stroke-width="3.0" />
            <path d=" M 466.613, 676.655 463.480, 686.151 460.347, 695.648 457.214, 705.144 454.081, 714.641 450.948, 724.138 447.653, 734.125 " fill="none" stroke="rgb(0, 0, 0)" stroke-linecap="butt" stroke-linejoin="miter" stroke-opacity="1.0" stroke-width="3.0" />
        </g>
    </g>
</svg>
