<?xml version='1.0' encoding='ascii'?>
<svg xmlns="http://www.w3.org/2000/svg" height="1000" version="1.1" width="1000">
    <g id="View Layer_LineSet" inkscape:groupmode="lineset" inkscape:label="View Layer_LineSet" xmlns:inkscape="http://www.inkscape.org/namespaces/inkscape">
        <g id="strokes" inkscape:groupmode="layer" inkscape:label="strokes" xmlns:inkscape="http://www.inkscape.org/namespaces/inkscape">
            <path d=" M 338.607, 608.100 338.586, 614.452 338.492, 620.175 337.904, 625.385 337.090, 630.486 335.343, 636.054 333.321, 641.688 330.439, 647.202 327.169, 652.604 322.332, 657.304 317.038, 661.750 310.669, 664.717 304.105, 665.834 297.482, 664.288 290.753, 661.054 283.327, 656.611 275.608, 651.790 267.222, 646.342 266.624, 645.953 258.241, 640.501 257.227, 639.842 248.748, 634.540 245.954, 632.793 237.448, 627.536 233.702, 625.221 225.115, 620.095 217.150, 615.340 208.544, 610.248 199.938, 605.156 199.667, 604.995 190.992, 600.021 182.317, 595.047 180.622, 594.075 171.928, 589.135 163.233, 584.195 161.118, 582.993 152.368, 578.153 143.618, 573.312 140.506, 571.591 131.746, 566.768 122.986, 561.945 119.667, 560.118 110.953, 555.213 102.238, 550.308 102.013, 550.182 93.344, 545.198 89.953, 543.248 81.336, 538.174 79.209, 536.922 70.855, 531.425 70.126, 530.946 61.844, 525.341 61.434, 525.063 53.509, 519.223 46.023, 513.397 40.592, 507.575 35.653, 501.755 32.627, 495.937 32.383, 490.121 33.783, 484.313 37.667, 478.506 43.105, 472.701 49.040, 466.896 56.562, 461.093 64.394, 455.291 72.633, 449.624 72.829, 449.489 81.137, 443.924 81.490, 443.688 90.032, 438.488 91.940, 437.326 100.529, 432.204 103.665, 430.334 112.276, 425.250 120.134, 420.611 128.817, 415.651 137.500, 410.691 140.247, 409.121 148.936, 404.170 157.624, 399.219 160.390, 397.643 169.045, 392.634 177.700, 387.625 179.507, 386.579 188.152, 381.552 196.797, 376.526 198.326, 375.636 206.918, 370.520 215.390, 365.474 223.963, 360.325 231.545, 355.771 240.000, 350.430 243.286, 348.355 251.697, 342.946 254.250, 341.304 262.527, 335.693 263.665, 334.922 271.946, 329.315 272.699, 328.805 280.659, 323.841 288.359, 319.172 295.356, 316.171 302.275, 315.059 309.064, 316.710 315.623, 319.995 320.727, 324.409 325.483, 329.080 328.947, 334.325 332.106, 339.680 334.201, 345.156 336.032, 350.563 336.973, 355.603 337.765, 360.781 338.224, 366.381 338.729, 373.139 339.141, 373.746 349.141, 373.746 359.141, 373.746 369.141, 373.746 379.141, 373.746 389.141, 373.746 399.141, 373.746 409.141, 373.746 419.141, 373.746 429.141, 373.746 439.141, 373.746 449.141, 373.746 459.141, 373.746 469.141, 373.746 479.141, 373.746 489.141, 373.746 499.141, 373.746 509.141, 373.746 519.141, 373.746 529.141, 373.746 539.141, 373.746 549.141, 373.746 559.141, 373.746 569.141, 373.746 579.141, 373.746 589.141, 373.746 599.141, 373.746 609.141, 373.746 619.141, 373.746 629.141, 373.746 639.141, 373.746 649.141, 373.746 659.141, 373.746 669.141, 373.746 679.141, 373.746 689.141, 373.746 699.141, 373.746 709.141, 373.746 719.141, 373.746 729.141, 373.746 739.141, 373.746 749.141, 373.746 759.141, 373.746 769.141, 373.746 779.141, 373.746 789.141, 373.746 799.141, 373.746 809.141, 373.746 819.141, 373.746 829.141, 373.746 839.141, 373.746 849.141, 373.746 859.141, 373.746 869.141, 373.746 879.141, 373.746 889.141, 373.746 899.141, 373.746 909.141, 373.746 919.141, 373.746 929.141, 373.746 939.141, 373.746 954.873, 373.746 955.571, 374.846 955.571, 384.846 955.571, 394.846 955.571, 404.846 955.571, 414.846 955.571, 424.846 955.571, 434.846 955.571, 444.846 955.571, 454.846 955.571, 464.846 955.571, 474.846 955.571, 484.846 955.571, 494.846 955.571, 504.846 955.571, 514.846 955.571, 524.846 955.571, 534.846 955.571, 544.846 955.571, 554.846 955.571, 564.846 955.571, 574.846 955.571, 584.846 955.571, 594.846 955.571, 605.977 954.874, 607.080 944.874, 607.080 934.874, 607.080 924.874, 607.080 914.874, 607.080 904.874, 607.080 894.874, 607.080 884.874, 607.080 874.874, 607.080 864.874, 607.080 854.874, 607.080 844.874, 607.080 834.874, 607.080 824.874, 607.080 814.874, 607.080 804.874, 607.080 794.874, 607.080 784.874, 607.080 774.874, 607.080 764.874, 607.080 754.874, 607.080 744.874, 607.080 734.874, 607.080 724.874, 607.080 714.874, 607.080 704.874, 607.080 694.874, 607.080 684.874, 607.080 674.874, 607.080 664.874, 607.080 654.874, 607.080 644.874, 607.080 634.874, 607.080 624.874, 607.080 614.874, 607.080 604.874, 607.080 594.874, 607.080 584.874, 607.080 574.874, 607.080 564.874, 607.080 554.874, 607.080 544.874, 607.080 534.874, 607.080 524.874, 607.080 514.874, 607.080 504.874, 607.080 494.874, 607.080 484.874, 607.080 474.874, 607.080 464.874, 607.080 454.874, 607.080 444.874, 607.080 434.874, 607.080 424.874, 607.080 414.874, 607.080 404.874, 607.080 394.874, 607.080 384.874, 607.080 374.874, 607.080 364.874, 607.080 354.874, 607.080 339.026, 607.080 338.607, 608.100 " fill="none" stroke="rgb(0, 0, 0)" stroke-linecap="butt" stroke-linejoin="miter" stroke-opacity="1.0" stroke-width="3.0" />
        </g>
    </g>
</svg>
